<?xml version="1.0" encoding="UTF-8"?> <svg xmlns="http://www.w3.org/2000/svg" data-name="Calque 1" viewBox="0 0 186.64 80.86"><path d="M5.67 47.55a5.53 5.53 0 014.09 1.73l-1.07 1a4.23 4.23 0 00-3-1.26 4.24 4.24 0 00.14 8.48A4.22 4.22 0 009 56l1.13 1a5.64 5.64 0 01-4.35 2.08 5.76 5.76 0 01-.14-11.52zM14.69 51.23a3.92 3.92 0 010 7.84 3.92 3.92 0 010-7.84zm0 6.4a2.48 2.48 0 10-2.37-2.48 2.37 2.37 0 002.37 2.48zM21.73 51.39v.72a3.24 3.24 0 012.21-.88 3.4 3.4 0 012.65 1.25 3.78 3.78 0 012.87-1.25 3.4 3.4 0 012.67 1.26 3.81 3.81 0 01.69 2.58v3.84H31.3v-4.08a2.13 2.13 0 00-.43-1.5 1.86 1.86 0 00-1.41-.66 3.1 3.1 0 00-2.29 1.07 6.23 6.23 0 01.13 1.33v3.84h-1.52v-4.08a2.13 2.13 0 00-.43-1.5 1.93 1.93 0 00-1.46-.66 2.86 2.86 0 00-2.11 1.07v5.17h-1.52v-7.52zM36.45 51.39v.72a3.24 3.24 0 012.21-.88 3.4 3.4 0 012.65 1.25 3.78 3.78 0 012.87-1.25 3.4 3.4 0 012.67 1.26 3.81 3.81 0 01.69 2.58v3.84H46v-4.08a2.13 2.13 0 00-.43-1.5 1.86 1.86 0 00-1.41-.66 3.1 3.1 0 00-2.29 1.07 6.23 6.23 0 01.13 1.33v3.84h-1.5v-4.08a2.13 2.13 0 00-.43-1.5 1.93 1.93 0 00-1.46-.66 2.86 2.86 0 00-2.11 1.07v5.17H35v-7.52zM50.22 57.81a3.85 3.85 0 01-.68-2.58v-3.84h1.52v4.08a2.16 2.16 0 00.43 1.53 1.91 1.91 0 001.46.65 2.87 2.87 0 002.11-1.07v-5.19h1.52v7.52h-1.47v-.69a3.4 3.4 0 01-4.89-.41zM60.37 52.11a3.28 3.28 0 012.26-.88 3.45 3.45 0 012.73 1.33 4 4 0 01.74 2.67v3.68h-1.52v-3.76a2.52 2.52 0 00-.45-1.74 2 2 0 00-1.55-.74 2.77 2.77 0 00-2.16 1.07v5.17H58.9v-7.52h1.47zM69 47.71a1 1 0 011 1 1 1 0 11-1-1zm-.76 3.68h1.53v7.52h-1.52zM78.82 57.31a4 4 0 01-3.35 1.76 3.92 3.92 0 11-.09-7.84 4 4 0 013.2 1.63l-1.12 1a2.58 2.58 0 00-2.08-1.14 2.48 2.48 0 00.09 5 2.68 2.68 0 002.18-1.17zM85.67 58.22a3.44 3.44 0 01-2.33.85 3.86 3.86 0 01-1.88-.49 4 4 0 010-6.87 3.62 3.62 0 011.84-.48 3.56 3.56 0 012.36.85v-.69h1.47v7.52h-1.46zm0-4.48a2.73 2.73 0 00-2.15-1.07 2.41 2.41 0 00-2.41 2.48 2.45 2.45 0 002.49 2.48 2.61 2.61 0 002.07-1.07zM94.1 58.91a4.08 4.08 0 01-1.19.16 2.71 2.71 0 01-2.13-.88 2.9 2.9 0 01-.6-2v-3.44h-1.93v-1.36h1.93v-2.08h1.52v2.08h2.4v1.36h-2.4v3.52a1.46 1.46 0 00.22 1 1.39 1.39 0 001 .4 3.91 3.91 0 00.83-.09zM96.53 47.71a1 1 0 011 1 1 1 0 11-1-1zm-.76 3.68h1.52v7.52h-1.52zM102.86 51.23A3.92 3.92 0 1199 55.15a3.81 3.81 0 013.86-3.92zm0 6.4a2.48 2.48 0 10-2.36-2.48 2.36 2.36 0 002.36 2.48zM109.9 52.11a3.28 3.28 0 012.26-.88 3.47 3.47 0 012.74 1.33 4 4 0 01.73 2.67v3.68h-1.52v-3.76a2.53 2.53 0 00-.44-1.74 2 2 0 00-1.56-.74 2.8 2.8 0 00-2.11 1.07v5.17h-1.52v-7.52h1.47zM120.11 57l-1.92 4.16h-1l1.2-4.16zM6.16 70.05v1.53H2.48v3.76h5v1.52H.88V65.65h6.4v1.52h-4.8v2.88zM10.51 70.05a3.28 3.28 0 012.26-.88 3.5 3.5 0 012.74 1.33 4 4 0 01.73 2.68v3.68h-1.52V73.1a2.52 2.52 0 00-.45-1.75 2 2 0 00-1.55-.73 2.77 2.77 0 00-2.16 1.07v5.17H9v-7.53h1.47zM21.57 77a3.8 3.8 0 01-1.89-.5 3.92 3.92 0 01-1.92-3.42 4 4 0 011.94-3.45 3.59 3.59 0 011.84-.48 3.55 3.55 0 012.35.85v-.69h1.47v7.21a5.18 5.18 0 01-.45 2.48 3.47 3.47 0 01-3.24 1.86A4.29 4.29 0 0118 79.11l1.12-1a2.93 2.93 0 002.48 1.35 2.08 2.08 0 001.83-.87 3.43 3.43 0 00.41-1.93v-.46a3.38 3.38 0 01-2.27.8zm2.27-5.33a2.69 2.69 0 00-2.14-1.07 2.4 2.4 0 00-2.42 2.48 2.46 2.46 0 002.5 2.48 2.61 2.61 0 002.06-1.08zM28.43 65.65a1 1 0 011 1 1 1 0 01-1 1 1 1 0 01-1-1 1 1 0 011-1zm-.75 3.68h1.52v7.53h-1.52zM33 70.05a3.28 3.28 0 012.26-.88A3.5 3.5 0 0138 70.5a4 4 0 01.73 2.68v3.68H37.2V73.1a2.52 2.52 0 00-.45-1.75 2 2 0 00-1.55-.73 2.77 2.77 0 00-2.2 1.07v5.17h-1.48v-7.53H33zM41.71 73.42a2.42 2.42 0 002.43 2.27 2.77 2.77 0 002.17-1l1 .94A3.94 3.94 0 0144.13 77a3.83 3.83 0 01-3.89-3.92 3.65 3.65 0 117.28 0v.32zm.13-1.28h4.1a2.12 2.12 0 00-2-1.64 2.19 2.19 0 00-2.1 1.64zM50 73.42a2.42 2.42 0 002.43 2.27 2.77 2.77 0 002.17-1l1 .94A3.94 3.94 0 0152.45 77a3.83 3.83 0 01-3.89-3.92 3.65 3.65 0 117.28 0v.32zm.13-1.28h4.1a2.12 2.12 0 00-2-1.64 2.19 2.19 0 00-2.07 1.64zM61.67 70.68a2.18 2.18 0 00-.6-.06 2.52 2.52 0 00-2 1.26v5h-1.55v-7.55H59v.87a2.77 2.77 0 012.26-1 4 4 0 01.59 0zM64 65.65a1 1 0 011 1 1 1 0 01-1 1 1 1 0 01-1-1 1 1 0 011-1zm-.75 3.68h1.55v7.53h-1.52zM68.59 70.05a3.28 3.28 0 012.26-.88 3.5 3.5 0 012.74 1.33 4 4 0 01.73 2.68v3.68H72.8V73.1a2.52 2.52 0 00-.45-1.75 2 2 0 00-1.55-.73 2.77 2.77 0 00-2.16 1.07v5.17h-1.52v-7.53h1.47zM79.65 77a3.8 3.8 0 01-1.89-.5 3.92 3.92 0 01-1.92-3.42 4 4 0 011.94-3.45 3.59 3.59 0 011.84-.48A3.55 3.55 0 0182 70v-.69h1.47v7.21A5.18 5.18 0 0183 79a3.49 3.49 0 01-3.25 1.86 4.28 4.28 0 01-3.66-1.75l1.12-1a2.93 2.93 0 002.48 1.35 2.05 2.05 0 001.82-.87 3.34 3.34 0 00.42-1.93v-.46a3.38 3.38 0 01-2.28.8zm2.27-5.33a2.69 2.69 0 00-2.14-1.07 2.4 2.4 0 00-2.42 2.48 2.46 2.46 0 002.5 2.48 2.61 2.61 0 002.06-1.08zM88.08 74.94l-1.92 4.16h-1l1.2-4.16zM96.88 74.46h-1.12l-3.28-5.14v7.54h-1.6V65.65H92l4.32 6.84 4.32-6.84h1.12v11.21h-1.6v-7.54zM109.65 76.17a3.48 3.48 0 01-2.32.85 3.8 3.8 0 01-1.89-.5 3.92 3.92 0 01-1.92-3.42 4 4 0 011.94-3.45 3.59 3.59 0 011.84-.48 3.55 3.55 0 012.35.85v-.69h1.47v7.53h-1.47zm-.05-4.48a2.69 2.69 0 00-2.14-1.07A2.4 2.4 0 00105 73.1a2.46 2.46 0 002.5 2.48 2.61 2.61 0 002.06-1.08zM114.91 70.05a3.28 3.28 0 012.26-.88 3.52 3.52 0 012.74 1.33 4 4 0 01.73 2.68v3.68h-1.52V73.1a2.52 2.52 0 00-.45-1.75 2 2 0 00-1.55-.73 2.77 2.77 0 00-2.12 1.07v5.17h-1.52v-7.53h1.47zM128.29 76.17A3.48 3.48 0 01126 77a3.77 3.77 0 01-1.89-.5 3.92 3.92 0 01-1.92-3.42 4 4 0 011.93-3.45 3.66 3.66 0 011.85-.48 3.55 3.55 0 012.35.85v-.69h1.47v7.53h-1.47zm0-4.48a2.69 2.69 0 00-2.14-1.07 2.4 2.4 0 00-2.42 2.48 2.46 2.46 0 002.5 2.48 2.61 2.61 0 002.06-1.08zM135.25 77a3.8 3.8 0 01-1.89-.5 3.92 3.92 0 01-1.92-3.42 4 4 0 011.94-3.45 3.59 3.59 0 011.84-.48 3.55 3.55 0 012.35.85v-.69H139v7.21a5.18 5.18 0 01-.45 2.46 3.49 3.49 0 01-3.25 1.86 4.28 4.28 0 01-3.66-1.75l1.12-1a2.93 2.93 0 002.48 1.35 2.05 2.05 0 001.82-.87 3.34 3.34 0 00.42-1.93v-.44a3.38 3.38 0 01-2.23.8zm2.27-5.33a2.69 2.69 0 00-2.14-1.07 2.4 2.4 0 00-2.38 2.5 2.46 2.46 0 002.5 2.48 2.61 2.61 0 002.06-1.08zM142.19 73.42a2.42 2.42 0 002.43 2.27 2.77 2.77 0 002.17-1l1 .94a4 4 0 01-3.18 1.37 3.83 3.83 0 01-3.89-3.92 3.65 3.65 0 117.28 0v.32zm.13-1.28h4.1a2.12 2.12 0 00-2-1.64 2.19 2.19 0 00-2.1 1.64zM151.15 69.33v.72a3.31 3.31 0 012.21-.88 3.44 3.44 0 012.64 1.25 3.75 3.75 0 012.86-1.25 3.38 3.38 0 012.67 1.27 3.8 3.8 0 01.69 2.58v3.84h-1.52v-4.08a2.16 2.16 0 00-.43-1.51 1.85 1.85 0 00-1.41-.65 3.1 3.1 0 00-2.29 1.07 6.23 6.23 0 01.13 1.33v3.84h-1.5v-4.08a2.16 2.16 0 00-.43-1.51 1.92 1.92 0 00-1.46-.65 2.86 2.86 0 00-2.11 1.07v5.17h-1.52v-7.53zM165.23 73.42a2.42 2.42 0 002.43 2.27 2.74 2.74 0 002.16-1l1 .94a4 4 0 01-3.17 1.37 3.82 3.82 0 01-3.89-3.92 3.65 3.65 0 117.28 0 2.28 2.28 0 010 .32zm.13-1.28h4.1a2.12 2.12 0 00-2-1.64 2.18 2.18 0 00-2.1 1.64zM174.19 70.05a3.28 3.28 0 012.26-.88 3.48 3.48 0 012.73 1.33 4 4 0 01.74 2.68v3.68h-1.52V73.1a2.57 2.57 0 00-.45-1.75 2 2 0 00-1.55-.73 2.77 2.77 0 00-2.16 1.07v5.17h-1.52v-7.53h1.47zM186.64 76.86a4.37 4.37 0 01-1.18.16 2.72 2.72 0 01-2.13-.88 2.89 2.89 0 01-.61-2V70.7h-1.92v-1.37h1.92v-2.08h1.52v2.08h2.4v1.37h-2.4v3.52a1.48 1.48 0 00.22 1 1.42 1.42 0 001 .4 4 4 0 00.84-.1z" fill="#221f1f"></path><path d="M7.19 16.92A11.07 11.07 0 0018.43 28.2a11.51 11.51 0 009.3-4.56l4.37 3.9a17.29 17.29 0 01-13.81 6.3C8 33.84.85 26.37.85 16.92S8 0 18.19 0a17.08 17.08 0 0112 4.7L26.13 9a11.27 11.27 0 00-8-3.38 11 11 0 00-10.94 11.3zM45.64 10.1a11.87 11.87 0 110 23.74 11.87 11.87 0 110-23.74zm0 18.1a6 6 0 006-6.2 6 6 0 10-12 0 6 6 0 006 6.2zM61.76 33.37v-22.8h5.88v1.84a9 9 0 016.15-2.31 9.91 9.91 0 017.66 3.58 11.33 11.33 0 018.09-3.58 10.39 10.39 0 018 3.67 11.37 11.37 0 012.3 7.52v12.08h-6.12V21.05c0-2.06-.42-3.1-1.13-3.9a4.58 4.58 0 00-3.43-1.41 7.14 7.14 0 00-5.5 3 19 19 0 01.19 2.54v12.09h-6.11V21.05c0-2.06-.42-3.1-1.13-3.9a4.58 4.58 0 00-3.43-1.41 7.06 7.06 0 00-5.31 2.82v14.81zM124.65 29.75a12.39 12.39 0 01-9.36 4.09c-6.81 0-11.93-4.7-11.93-11.84 0-6.35 4.32-11.9 11.09-11.9 6.29 0 10.76 5.32 10.76 11.66a10.48 10.48 0 01-.14 1.74h-15.79a6 6 0 006.15 5.4 8 8 0 005.74-2.63zM119 19a4.54 4.54 0 00-4.51-4 5 5 0 00-4.89 4zM129.21 33.37v-22.8h5.87v1.84a9.07 9.07 0 016.16-2.31 9.92 9.92 0 017.66 3.58 11.3 11.3 0 018.1-3.58 10.38 10.38 0 018 3.67 11.31 11.31 0 012.3 7.52v12.08h-6.11V21.05c0-2.06-.42-3.1-1.12-3.9a4.6 4.6 0 00-3.44-1.41 7.12 7.12 0 00-5.49 3 20.9 20.9 0 01.18 2.54v12.09h-6.11V21.05c0-2.06-.42-3.1-1.12-3.9a4.6 4.6 0 00-3.43-1.41 7 7 0 00-5.31 2.82v14.81z" fill="#e72128"></path></svg> 