<svg width="295" height="300" viewBox="0 0 295 300" fill="none" xmlns="http://www.w3.org/2000/svg">
<rect y="5" width="295" height="295" fill="black"/>
<path d="M32.5 134C32.5 137.333 32.5 140.667 32.5 144C36.2417 143.867 39.9833 143.74 43.725 143.62C77.4 142.54 111.075 142 144.75 142C178.425 142 212.1 142.54 245.775 143.62C249.517 143.74 253.258 143.867 257 144C257 140.667 257 137.333 257 134C253.258 134.133 249.517 134.26 245.775 134.38C212.1 135.46 178.425 136 144.75 136C111.075 136 77.4 135.46 43.725 134.38C39.9833 134.26 36.2417 134.133 32.5 134Z" fill="#FFF8F8"/>
<path d="M173.864 47.56L149.032 125H140.456L115.496 47.56C114.728 45 114.131 43.5067 113.704 43.08C113.363 42.568 112.509 42.2267 111.144 42.056L104.744 41.416V37.96H134.824V41.416L128.296 42.056C126.931 42.2267 126.163 42.568 125.992 43.08C125.907 43.592 126.248 45.0853 127.016 47.56L148.136 113.864L169.256 47.56C170.109 45.0853 170.451 43.592 170.28 43.08C170.195 42.568 169.427 42.2267 167.976 42.056L161.448 41.416V37.96H184.616V41.416L178.088 42.056C177.235 42.1413 176.595 42.312 176.168 42.568C175.827 42.7387 175.485 43.208 175.144 43.976C174.888 44.6587 174.461 45.8533 173.864 47.56Z" fill="white"/>
<path d="M166.64 254L144.88 180.528L123.376 254H114.928L96.24 176.56C95.6427 174.085 95.1733 172.592 94.832 172.08C94.4907 171.568 93.6373 171.227 92.272 171.056L85.744 170.416V166.96H115.568V170.416L109.04 171.056C107.675 171.227 106.907 171.568 106.736 172.08C106.651 172.507 106.907 174 107.504 176.56L122.736 240.56L144.112 166.96H152.048L173.68 240.048L189.04 176.56C189.723 174 189.936 172.507 189.68 172.08C189.509 171.568 188.784 171.227 187.504 171.056L180.848 170.416V166.96H204.144V170.416L197.616 171.056C196.336 171.227 195.525 171.568 195.184 172.08C194.843 172.507 194.331 174 193.648 176.56L174.96 254H166.64Z" fill="white"/>
</svg>
